<?xml version="1.0" encoding="utf-8"?>
<!-- Generator: Adobe Illustrator 15.0.0, SVG Export Plug-In . SVG Version: 6.00 Build 0)  -->
<!DOCTYPE svg PUBLIC "-//W3C//DTD SVG 1.1//EN" "http://www.w3.org/Graphics/SVG/1.1/DTD/svg11.dtd">
<svg version="1.1" id="Layer_1" xmlns="http://www.w3.org/2000/svg" xmlns:xlink="http://www.w3.org/1999/xlink" x="0px" y="0px"
	 width="373px" height="173px" viewBox="0 0 373 173" enable-background="new 0 0 373 173" xml:space="preserve">
<path fill-rule="evenodd" clip-rule="evenodd" fill="#ECE1CC" d="M205.45,96.863l0.644-8.941c21.072-2.387,44.83-3.739,71.663-3.739
	c-26.605,0-50.19-1.328-71.13-3.68l0.288-4.002c0,0,2.086-3.799,2.188-9.475c12.015-14.56,26.028-29.984,42.354-46.312
	c-15.156,15.159-29.537,28.315-43.168,39.736c-0.079-0.293-0.144-0.582-0.234-0.879l0.475-13.546c0,0-8.922-0.719-18.751-0.882
	c-1.159-15.563-1.792-32.427-1.792-50.721c0,18.281-0.625,35.134-1.778,50.688c-7.206-0.008-14.385,0.356-18.475,1.583l0.834,11.75
	c0,0-0.255,0.882-0.527,2.301c-13.742-11.488-28.24-24.741-43.533-40.03c16.576,16.571,30.766,32.212,42.902,46.963
	c0.057,3.128,0.653,6.503,2.457,9.183l0.22,3.56c-21.131,2.404-44.945,3.768-71.865,3.764c27.119,0.004,51.086,1.382,72.333,3.815
	l0.506,8.205c-12.913,16.054-28.287,33.19-46.552,51.454c16.614-16.612,32.29-30.82,47.075-42.972l1.217,19.721
	c0,0,5.221,1.982,13.65,2.208c0.999,14.613,1.537,30.355,1.537,47.328c0-16.971,0.544-32.713,1.547-47.326
	c4.103-0.106,8.801-0.652,13.919-1.978l1.408-19.571c14.643,12.067,30.163,26.151,46.597,42.59
	C233.448,129.644,218.25,112.728,205.45,96.863z"/>
<path fill-rule="evenodd" clip-rule="evenodd" fill="#ECE1CC" d="M289.573,15.514l18.412,46.01l15.922-17.192l15.092,39.296
	l11.717-13.024l16.005,51.217l-17.688-34.799l-13.516,11.985L320.806,61.13l-15.353,19.321l-23.91-55.182L289.573,15.514z"/>
<path fill-rule="evenodd" clip-rule="evenodd" fill="#ECE1CC" d="M84.563,15.571L66.162,61.557L50.248,44.373L35.164,83.648
	L23.453,70.631l-15.996,51.19l17.679-34.78L38.645,99.02l14.704-37.857l15.344,19.311L92.59,25.321L84.563,15.571z"/>
<path fill-rule="evenodd" clip-rule="evenodd" fill="#ECE1CC" d="M361.477,4.655l-3.241,15.604L372,28.288l-15.843,1.742
	l-3.386,15.576l-6.549-14.529l-15.858,1.593l11.795-10.722l-6.413-14.592l13.838,7.908L361.477,4.655z"/>
<path fill-rule="evenodd" clip-rule="evenodd" fill="#ECE1CC" d="M18.984,32.998L5.146,40.905l6.414-14.592L-0.234,15.592
	l15.857,1.593l6.549-14.529l3.387,15.576l15.842,1.742l-13.764,8.029l3.241,15.604L18.984,32.998z"/>
</svg>
