<?xml version="1.0" encoding="utf-8"?>
<!-- Generator: Adobe Illustrator 15.0.0, SVG Export Plug-In . SVG Version: 6.00 Build 0)  -->
<!DOCTYPE svg PUBLIC "-//W3C//DTD SVG 1.1//EN" "http://www.w3.org/Graphics/SVG/1.1/DTD/svg11.dtd">
<svg version="1.1" id="Layer_1" xmlns="http://www.w3.org/2000/svg" xmlns:xlink="http://www.w3.org/1999/xlink" x="0px" y="0px"
	 width="320px" height="160px" viewBox="0 0 320 160" enable-background="new 0 0 320 160" xml:space="preserve">
<path fill="#4DCDFD" d="M174.224,66.637l0.442-6.149c14.493-1.642,30.833-2.571,49.287-2.571c-18.299,0-34.52-0.913-48.92-2.531
	l0.197-2.753c0,0,1.436-2.613,1.504-6.517c8.265-10.014,17.901-20.622,29.131-31.852c-10.424,10.426-20.314,19.474-29.689,27.33
	c-0.055-0.202-0.1-0.401-0.161-0.604l0.326-9.316c0,0-6.136-0.494-12.896-0.606c-0.797-10.704-1.232-22.302-1.232-34.884
	c0,12.573-0.43,24.164-1.222,34.861c-4.956-0.005-9.895,0.244-12.707,1.088l0.573,8.082c0,0-0.176,0.606-0.362,1.583
	c-9.451-7.901-19.422-17.016-29.94-27.532c11.4,11.397,21.159,22.154,29.507,32.299c0.038,2.152,0.448,4.473,1.689,6.316
	l0.151,2.448c-14.532,1.653-30.911,2.592-49.425,2.589c18.65,0.002,35.135,0.95,49.747,2.623l0.347,5.644
	c-8.88,11.041-19.454,22.827-32.017,35.386c11.428-11.424,22.208-21.195,32.376-29.554l0.837,13.564c0,0,3.591,1.363,9.389,1.52
	c0.686,10.049,1.056,20.875,1.056,32.549c0-11.672,0.375-22.498,1.064-32.549c2.821-0.072,6.054-0.447,9.572-1.36l0.969-13.459
	c10.07,8.299,20.744,17.985,32.048,29.29C193.479,89.184,183.027,77.549,174.224,66.637z"/>
<path fill="#4DCDFD" d="M247.113,19.888L262.5,58.34l13.307-14.368l12.612,32.84l9.793-10.885l13.376,42.805l-14.783-29.084
	l-11.296,10.018L273.215,58.01l-12.831,16.148L240.402,28.04L247.113,19.888z"/>
<path fill="#4DCDFD" d="M75.777,19.935L60.399,58.367L47.098,44.006L34.492,76.83l-9.788-10.879l-13.368,42.781l14.775-29.066
	l11.29,10.01l12.289-31.638l12.822,16.139l19.973-46.094L75.777,19.935z"/>
<path fill="#4DCDFD" d="M307.205,10.812l-2.708,13.041L316,30.563l-13.241,1.457l-2.83,13.017l-5.473-12.143l-13.254,1.331
	l9.856-8.96L285.7,13.07l11.564,6.609L307.205,10.812z"/>
<path fill="#4DCDFD" d="M20.969,34.5L9.405,41.108l5.36-12.195l-9.856-8.96l13.253,1.331l5.474-12.142l2.83,13.017l13.24,1.457
	l-11.504,6.709l2.709,13.041L20.969,34.5z"/>
</svg>
